<svg width="124px" height="124px" viewBox="0 0 124 124" version="1.1" xmlns="http://www.w3.org/2000/svg" xmlns:xlink="http://www.w3.org/1999/xlink">
              <g id="Page-1" stroke="none" stroke-width="1" fill="none" fill-rule="evenodd">
                  <g id="panier-copy" transform="translate(-1259.000000, -130.000000)" fill="#26558A">
                      <g id="Group" transform="translate(1259.000000, 130.000000)">
                          <ellipse id="Oval" cx="2.52808989" cy="2.53226519" rx="2.52808989" ry="2.53226519"></ellipse>
                          <ellipse id="Oval" cx="2.52808989" cy="15.7000442" rx="2.52808989" ry="2.53226519"></ellipse>
                          <ellipse id="Oval" cx="2.52808989" cy="28.8678231" rx="2.52808989" ry="2.53226519"></ellipse>
                          <ellipse id="Oval" cx="2.52808989" cy="42.0356021" rx="2.52808989" ry="2.53226519"></ellipse>
                          <ellipse id="Oval" cx="2.52808989" cy="55.2033811" rx="2.52808989" ry="2.53226519"></ellipse>
                          <ellipse id="Oval" cx="2.52808989" cy="68.37116" rx="2.52808989" ry="2.53226519"></ellipse>
                          <ellipse id="Oval" cx="2.52808989" cy="81.538939" rx="2.52808989" ry="2.53226519"></ellipse>
                          <ellipse id="Oval" cx="2.52808989" cy="94.706718" rx="2.52808989" ry="2.53226519"></ellipse>
                          <ellipse id="Oval" cx="2.52808989" cy="107.874497" rx="2.52808989" ry="2.53226519"></ellipse>
                          <ellipse id="Oval" cx="2.52808989" cy="121.042276" rx="2.52808989" ry="2.53226519"></ellipse>
                          <ellipse id="Oval" cx="15.6741573" cy="2.53226519" rx="2.52808989" ry="2.53226519"></ellipse>
                          <ellipse id="Oval" cx="15.6741573" cy="15.7000442" rx="2.52808989" ry="2.53226519"></ellipse>
                          <ellipse id="Oval" cx="15.6741573" cy="28.8678231" rx="2.52808989" ry="2.53226519"></ellipse>
                          <ellipse id="Oval" cx="15.6741573" cy="42.0356021" rx="2.52808989" ry="2.53226519"></ellipse>
                          <ellipse id="Oval" cx="15.6741573" cy="55.2033811" rx="2.52808989" ry="2.53226519"></ellipse>
                          <ellipse id="Oval" cx="15.6741573" cy="68.37116" rx="2.52808989" ry="2.53226519"></ellipse>
                          <ellipse id="Oval" cx="15.6741573" cy="81.538939" rx="2.52808989" ry="2.53226519"></ellipse>
                          <ellipse id="Oval" cx="15.6741573" cy="94.706718" rx="2.52808989" ry="2.53226519"></ellipse>
                          <ellipse id="Oval" cx="15.6741573" cy="107.874497" rx="2.52808989" ry="2.53226519"></ellipse>
                          <ellipse id="Oval" cx="15.6741573" cy="121.042276" rx="2.52808989" ry="2.53226519"></ellipse>
                          <ellipse id="Oval" cx="28.8202247" cy="2.53226519" rx="2.52808989" ry="2.53226519"></ellipse>
                          <ellipse id="Oval" cx="28.8202247" cy="15.7000442" rx="2.52808989" ry="2.53226519"></ellipse>
                          <ellipse id="Oval" cx="28.8202247" cy="28.8678231" rx="2.52808989" ry="2.53226519"></ellipse>
                          <ellipse id="Oval" cx="28.8202247" cy="42.0356021" rx="2.52808989" ry="2.53226519"></ellipse>
                          <ellipse id="Oval" cx="28.8202247" cy="55.2033811" rx="2.52808989" ry="2.53226519"></ellipse>
                          <ellipse id="Oval" cx="28.8202247" cy="68.37116" rx="2.52808989" ry="2.53226519"></ellipse>
                          <ellipse id="Oval" cx="28.8202247" cy="81.538939" rx="2.52808989" ry="2.53226519"></ellipse>
                          <ellipse id="Oval" cx="28.8202247" cy="94.706718" rx="2.52808989" ry="2.53226519"></ellipse>
                          <ellipse id="Oval" cx="28.8202247" cy="107.874497" rx="2.52808989" ry="2.53226519"></ellipse>
                          <ellipse id="Oval" cx="28.8202247" cy="121.042276" rx="2.52808989" ry="2.53226519"></ellipse>
                          <ellipse id="Oval" cx="41.9662921" cy="2.53226519" rx="2.52808989" ry="2.53226519"></ellipse>
                          <ellipse id="Oval" cx="41.9662921" cy="15.7000442" rx="2.52808989" ry="2.53226519"></ellipse>
                          <ellipse id="Oval" cx="41.9662921" cy="28.8678231" rx="2.52808989" ry="2.53226519"></ellipse>
                          <ellipse id="Oval" cx="41.9662921" cy="42.0356021" rx="2.52808989" ry="2.53226519"></ellipse>
                          <ellipse id="Oval" cx="41.9662921" cy="55.2033811" rx="2.52808989" ry="2.53226519"></ellipse>
                          <ellipse id="Oval" cx="41.9662921" cy="68.37116" rx="2.52808989" ry="2.53226519"></ellipse>
                          <ellipse id="Oval" cx="41.9662921" cy="81.538939" rx="2.52808989" ry="2.53226519"></ellipse>
                          <ellipse id="Oval" cx="41.9662921" cy="94.706718" rx="2.52808989" ry="2.53226519"></ellipse>
                          <ellipse id="Oval" cx="41.9662921" cy="107.874497" rx="2.52808989" ry="2.53226519"></ellipse>
                          <ellipse id="Oval" cx="41.9662921" cy="121.042276" rx="2.52808989" ry="2.53226519"></ellipse>
                          <ellipse id="Oval" cx="55.1123596" cy="2.53226519" rx="2.52808989" ry="2.53226519"></ellipse>
                          <ellipse id="Oval" cx="55.1123596" cy="15.7000442" rx="2.52808989" ry="2.53226519"></ellipse>
                          <ellipse id="Oval" cx="55.1123596" cy="28.8678231" rx="2.52808989" ry="2.53226519"></ellipse>
                          <ellipse id="Oval" cx="55.1123596" cy="42.0356021" rx="2.52808989" ry="2.53226519"></ellipse>
                          <ellipse id="Oval" cx="55.1123596" cy="55.2033811" rx="2.52808989" ry="2.53226519"></ellipse>
                          <ellipse id="Oval" cx="55.1123596" cy="68.37116" rx="2.52808989" ry="2.53226519"></ellipse>
                          <ellipse id="Oval" cx="55.1123596" cy="81.538939" rx="2.52808989" ry="2.53226519"></ellipse>
                          <ellipse id="Oval" cx="55.1123596" cy="94.706718" rx="2.52808989" ry="2.53226519"></ellipse>
                          <ellipse id="Oval" cx="55.1123596" cy="107.874497" rx="2.52808989" ry="2.53226519"></ellipse>
                          <ellipse id="Oval" cx="55.1123596" cy="121.042276" rx="2.52808989" ry="2.53226519"></ellipse>
                          <ellipse id="Oval" cx="68.258427" cy="2.53226519" rx="2.52808989" ry="2.53226519"></ellipse>
                          <ellipse id="Oval" cx="68.258427" cy="15.7000442" rx="2.52808989" ry="2.53226519"></ellipse>
                          <ellipse id="Oval" cx="68.258427" cy="28.8678231" rx="2.52808989" ry="2.53226519"></ellipse>
                          <ellipse id="Oval" cx="68.258427" cy="42.0356021" rx="2.52808989" ry="2.53226519"></ellipse>
                          <ellipse id="Oval" cx="68.258427" cy="55.2033811" rx="2.52808989" ry="2.53226519"></ellipse>
                          <ellipse id="Oval" cx="68.258427" cy="68.37116" rx="2.52808989" ry="2.53226519"></ellipse>
                          <ellipse id="Oval" cx="68.258427" cy="81.538939" rx="2.52808989" ry="2.53226519"></ellipse>
                          <ellipse id="Oval" cx="68.258427" cy="94.706718" rx="2.52808989" ry="2.53226519"></ellipse>
                          <ellipse id="Oval" cx="68.258427" cy="107.874497" rx="2.52808989" ry="2.53226519"></ellipse>
                          <ellipse id="Oval" cx="68.258427" cy="121.042276" rx="2.52808989" ry="2.53226519"></ellipse>
                          <ellipse id="Oval" cx="81.4044944" cy="2.53226519" rx="2.52808989" ry="2.53226519"></ellipse>
                          <ellipse id="Oval" cx="81.4044944" cy="15.7000442" rx="2.52808989" ry="2.53226519"></ellipse>
                          <ellipse id="Oval" cx="81.4044944" cy="28.8678231" rx="2.52808989" ry="2.53226519"></ellipse>
                          <ellipse id="Oval" cx="81.4044944" cy="42.0356021" rx="2.52808989" ry="2.53226519"></ellipse>
                          <ellipse id="Oval" cx="81.4044944" cy="55.2033811" rx="2.52808989" ry="2.53226519"></ellipse>
                          <ellipse id="Oval" cx="81.4044944" cy="68.37116" rx="2.52808989" ry="2.53226519"></ellipse>
                          <ellipse id="Oval" cx="81.4044944" cy="81.538939" rx="2.52808989" ry="2.53226519"></ellipse>
                          <ellipse id="Oval" cx="81.4044944" cy="94.706718" rx="2.52808989" ry="2.53226519"></ellipse>
                          <ellipse id="Oval" cx="81.4044944" cy="107.874497" rx="2.52808989" ry="2.53226519"></ellipse>
                          <ellipse id="Oval" cx="81.4044944" cy="121.042276" rx="2.52808989" ry="2.53226519"></ellipse>
                          <ellipse id="Oval" cx="94.5505618" cy="2.53226519" rx="2.52808989" ry="2.53226519"></ellipse>
                          <ellipse id="Oval" cx="94.5505618" cy="15.7000442" rx="2.52808989" ry="2.53226519"></ellipse>
                          <ellipse id="Oval" cx="94.5505618" cy="28.8678231" rx="2.52808989" ry="2.53226519"></ellipse>
                          <ellipse id="Oval" cx="94.5505618" cy="42.0356021" rx="2.52808989" ry="2.53226519"></ellipse>
                          <ellipse id="Oval" cx="94.5505618" cy="55.2033811" rx="2.52808989" ry="2.53226519"></ellipse>
                          <ellipse id="Oval" cx="94.5505618" cy="68.37116" rx="2.52808989" ry="2.53226519"></ellipse>
                          <ellipse id="Oval" cx="94.5505618" cy="81.538939" rx="2.52808989" ry="2.53226519"></ellipse>
                          <ellipse id="Oval" cx="94.5505618" cy="94.706718" rx="2.52808989" ry="2.53226519"></ellipse>
                          <ellipse id="Oval" cx="94.5505618" cy="107.874497" rx="2.52808989" ry="2.53226519"></ellipse>
                          <ellipse id="Oval" cx="94.5505618" cy="121.042276" rx="2.52808989" ry="2.53226519"></ellipse>
                          <ellipse id="Oval" cx="107.696629" cy="2.53226519" rx="2.52808989" ry="2.53226519"></ellipse>
                          <ellipse id="Oval" cx="107.696629" cy="15.7000442" rx="2.52808989" ry="2.53226519"></ellipse>
                          <ellipse id="Oval" cx="107.696629" cy="28.8678231" rx="2.52808989" ry="2.53226519"></ellipse>
                          <ellipse id="Oval" cx="107.696629" cy="42.0356021" rx="2.52808989" ry="2.53226519"></ellipse>
                          <ellipse id="Oval" cx="107.696629" cy="55.2033811" rx="2.52808989" ry="2.53226519"></ellipse>
                          <ellipse id="Oval" cx="107.696629" cy="68.37116" rx="2.52808989" ry="2.53226519"></ellipse>
                          <ellipse id="Oval" cx="107.696629" cy="81.538939" rx="2.52808989" ry="2.53226519"></ellipse>
                          <ellipse id="Oval" cx="107.696629" cy="94.706718" rx="2.52808989" ry="2.53226519"></ellipse>
                          <ellipse id="Oval" cx="107.696629" cy="107.874497" rx="2.52808989" ry="2.53226519"></ellipse>
                          <ellipse id="Oval" cx="107.696629" cy="121.042276" rx="2.52808989" ry="2.53226519"></ellipse>
                          <ellipse id="Oval" cx="120.842697" cy="2.53226519" rx="2.52808989" ry="2.53226519"></ellipse>
                          <ellipse id="Oval" cx="120.842697" cy="15.7000442" rx="2.52808989" ry="2.53226519"></ellipse>
                          <ellipse id="Oval" cx="120.842697" cy="28.8678231" rx="2.52808989" ry="2.53226519"></ellipse>
                          <ellipse id="Oval" cx="120.842697" cy="42.0356021" rx="2.52808989" ry="2.53226519"></ellipse>
                          <ellipse id="Oval" cx="120.842697" cy="55.2033811" rx="2.52808989" ry="2.53226519"></ellipse>
                          <ellipse id="Oval" cx="120.842697" cy="68.37116" rx="2.52808989" ry="2.53226519"></ellipse>
                          <ellipse id="Oval" cx="120.842697" cy="81.538939" rx="2.52808989" ry="2.53226519"></ellipse>
                          <ellipse id="Oval" cx="120.842697" cy="94.706718" rx="2.52808989" ry="2.53226519"></ellipse>
                          <ellipse id="Oval" cx="120.842697" cy="107.874497" rx="2.52808989" ry="2.53226519"></ellipse>
                          <ellipse id="Oval" cx="120.842697" cy="121.042276" rx="2.52808989" ry="2.53226519"></ellipse>
                      </g>
                  </g>
              </g>
          </svg>