      <svg width="137px" height="120px" viewBox="0 0 137 120" version="1.1" xmlns="http://www.w3.org/2000/svg" xmlns:xlink="http://www.w3.org/1999/xlink">
          <g id="Page-1" stroke="none" stroke-width="1" fill="none" fill-rule="evenodd">
              <g id="panier-copy">
                  <rect fill="#FBFBFB" x="0" y="0" width="1440" height="1683"></rect>
                  <g id="logo">
                      <g id="Group-11">
                          <rect id="Rectangle" fill="#FFFFFF" x="0" y="0" width="137" height="120"></rect>
                          <g id="Group-5" transform="translate(23.000000, 31.000000)" fill="#33176E">
                              <g id="noun_lemon_1451118" transform="translate(26.000000, 0.000000)">
                                  <path d="M26.012626,26.2725554 C32.6485,19.5703729 32.913935,8.71283726 26.6762134,1.74256745 L28.4015407,0 C40.0806789,13.0022341 30.9231728,33.9130435 13.5371829,33.9130435 C8.62663619,33.9130435 3.84880691,32.170476 0,28.6853411 L1.72532724,26.9427737 C8.62663619,33.2428252 19.3767521,32.9747379 26.012626,26.2725554 Z M12.4754431,16.085238 L12.4754431,29.489603 C9.15750611,29.2215157 5.83956911,27.8810792 3.18521952,25.4682935 L12.4754431,16.085238 Z M14.4662053,16.085238 L23.8891464,25.4682935 C21.1020793,27.8810792 17.9168598,29.2215157 14.4662053,29.489603 L14.4662053,16.085238 Z M29.1978456,12.6001031 L15.9260976,12.6001031 L25.2163212,3.2170476 C27.6052358,5.8979206 28.9324106,9.24901186 29.1978456,12.6001031 Z M29.1978456,14.6107579 C28.9324106,18.0958928 27.6052358,21.446984 25.2163212,24.127857 L15.9260976,14.6107579 L29.1978456,14.6107579 Z" id="Shape"></path>
                              </g>
                              <g id="TasteHealthy.-2" transform="translate(0.000000, 44.000000)" fill-rule="nonzero">
                                  <path d="M3.68352491,1.84253242 L0.910315789,1.84253242 L0.910315789,0.132006102 L8.31507005,0.132006102 L8.31507005,1.84253242 L5.54186092,1.84253242 L5.54186092,10.1100763 L3.68352491,10.1100763 L3.68352491,1.84253242 Z M10.7452018,5.14954996 L9.24423805,4.8074447 C9.47295633,3.61007628 10.5450733,2.81183066 11.9888574,2.81183066 C14.0044372,2.81183066 15.0193746,3.80963768 15.0193746,5.8195061 L15.0193746,10.1100763 L13.5612956,10.1100763 L13.375462,9.19779558 C12.8179611,9.8820061 12.0746267,10.2241114 11.1597536,10.2241114 C9.88750821,10.2241114 8.9726351,9.42586575 8.9726351,8.04319031 C8.9726351,6.61775172 10.2162907,5.69121663 12.046037,5.69121663 L13.2468079,5.69121663 L13.2468079,5.37762014 C13.2468079,4.67915523 12.832256,4.32279558 11.9888574,4.32279558 C11.3455872,4.32279558 10.9310354,4.59362891 10.7452018,5.14954996 Z M10.8309711,8.01468154 C10.8309711,8.39954996 11.1025741,8.71314645 11.5743055,8.71314645 C12.0174472,8.71314645 12.4034093,8.57060259 12.7321918,8.29976926 C13.0752692,8.02893593 13.2468079,7.67257628 13.2468079,7.23069031 L13.2468079,7.08814645 L12.0603319,7.08814645 C11.245523,7.08814645 10.8309711,7.40174294 10.8309711,8.01468154 Z M19.079124,2.81183066 C20.0368818,2.81183066 20.8802805,3.2822254 21.337717,3.98069031 L20.279895,4.94998856 C19.9511124,4.53661137 19.5508555,4.32279558 19.079124,4.32279558 C18.7217517,4.32279558 18.421559,4.53661137 18.421559,4.92147979 C18.421559,5.22082189 18.6502772,5.44889207 19.1077138,5.6199447 L19.6223299,5.80525172 L20.2370103,6.01906751 C20.3513694,6.06183066 20.5229081,6.16161137 20.7516264,6.28990084 C20.9946396,6.41819031 21.1661783,6.5322254 21.2662425,6.66051487 C21.4806659,6.90283944 21.7093842,7.33047101 21.7093842,7.82937452 C21.7093842,8.49933066 21.466371,9.05525172 20.9946396,9.52564645 C20.5229081,9.99604119 19.9082278,10.2241114 19.1505985,10.2241114 C18.4644436,10.2241114 17.8640582,10.02455 17.3637369,9.63968154 C16.8634157,9.25481312 16.5060434,8.79867277 16.29162,8.28551487 L17.7068143,7.53003242 C17.9927122,8.31402365 18.4787385,8.71314645 19.1505985,8.71314645 C19.7366891,8.71314645 20.0368818,8.45656751 20.0368818,7.94340961 C20.0368818,7.71533944 19.9225227,7.53003242 19.6509197,7.40174294 C19.5222657,7.33047101 19.3793168,7.27345347 19.2506627,7.23069031 C19.0076496,7.11665523 18.5073283,6.95985698 18.2357254,6.84582189 C17.3208522,6.46095347 16.7776463,5.93354119 16.7776463,4.9072254 C16.7776463,4.32279558 16.9920697,3.83814645 17.4209165,3.42476926 C17.8497633,3.01139207 18.4072641,2.81183066 19.079124,2.81183066 Z M27.0699689,8.54209382 L27.4845207,9.96753242 C27.1128535,10.138585 26.7268914,10.2241114 26.3123396,10.2241114 C24.654132,10.2241114 23.6677845,9.32608505 23.6677845,7.57279558 L23.6677845,4.43683066 L22.5527829,4.43683066 L22.5527829,2.92586575 L23.6677845,2.92586575 L23.6677845,1.12981312 L25.4403511,0.0179710145 L25.4403511,2.92586575 L27.3415718,2.92586575 L27.3415718,4.43683066 L25.4403511,4.43683066 L25.4403511,7.5442868 C25.4403511,8.39954996 25.7548388,8.71314645 26.383814,8.71314645 C26.6268272,8.71314645 26.8555455,8.65612891 27.0699689,8.54209382 Z M35.3324167,6.36117277 L35.3324167,7.08814645 L30.372089,7.08814645 C30.4149737,7.957664 31.0439489,8.71314645 32.0731812,8.71314645 C32.8022207,8.71314645 33.3883113,8.34253242 33.8171581,7.60130435 L35.2466473,8.12871663 C34.6319669,9.52564645 33.5455551,10.2241114 31.9731169,10.2241114 C29.5001006,10.2241114 28.513753,8.22849733 28.513753,6.51797101 C28.513753,4.8074447 29.5001006,2.81183066 31.9731169,2.81183066 C33.1167083,2.81183066 34.0458763,3.2822254 34.5604925,4.00919908 C35.0751086,4.707664 35.3324167,5.54867277 35.3324167,6.36117277 Z M31.9731169,4.32279558 C31.1297183,4.32279558 30.5436277,4.93573417 30.4149737,5.69121663 L33.5169653,5.69121663 C33.3168368,4.77893593 32.8022207,4.32279558 31.9731169,4.32279558 Z M38.9919091,10.1100763 L37.1335731,10.1100763 L37.1335731,0.132006102 L38.9919091,0.132006102 L38.9919091,3.92367277 L42.994479,3.92367277 L42.994479,0.132006102 L44.852815,0.132006102 L44.852815,10.1100763 L42.994479,10.1100763 L42.994479,5.63419908 L38.9919091,5.63419908 L38.9919091,10.1100763 Z M53.5726993,6.36117277 L53.5726993,7.08814645 L48.6123717,7.08814645 C48.6552564,7.957664 49.2842316,8.71314645 50.3134639,8.71314645 C51.0425034,8.71314645 51.628594,8.34253242 52.0574407,7.60130435 L53.48693,8.12871663 C52.8722496,9.52564645 51.7858378,10.2241114 50.2133996,10.2241114 C47.7403832,10.2241114 46.7540357,8.22849733 46.7540357,6.51797101 C46.7540357,4.8074447 47.7403832,2.81183066 50.2133996,2.81183066 C51.356991,2.81183066 52.286159,3.2822254 52.8007752,4.00919908 C53.3153913,4.707664 53.5726993,5.54867277 53.5726993,6.36117277 Z M50.2133996,4.32279558 C49.370001,4.32279558 48.7839104,4.93573417 48.6552564,5.69121663 L51.757248,5.69121663 C51.5571195,4.77893593 51.0425034,4.32279558 50.2133996,4.32279558 Z M56.403088,5.14954996 L54.9021243,4.8074447 C55.1308426,3.61007628 56.2029595,2.81183066 57.6467437,2.81183066 C59.6623235,2.81183066 60.6772609,3.80963768 60.6772609,5.8195061 L60.6772609,10.1100763 L59.2191818,10.1100763 L59.0333482,9.19779558 C58.4758474,9.8820061 57.732513,10.2241114 56.8176399,10.2241114 C55.5453945,10.2241114 54.6305214,9.42586575 54.6305214,8.04319031 C54.6305214,6.61775172 55.874177,5.69121663 57.7039232,5.69121663 L58.9046942,5.69121663 L58.9046942,5.37762014 C58.9046942,4.67915523 58.4901423,4.32279558 57.6467437,4.32279558 C57.0034735,4.32279558 56.5889216,4.59362891 56.403088,5.14954996 Z M56.4888574,8.01468154 C56.4888574,8.39954996 56.7604603,8.71314645 57.2321918,8.71314645 C57.6753335,8.71314645 58.0612956,8.57060259 58.3900781,8.29976926 C58.7331555,8.02893593 58.9046942,7.67257628 58.9046942,7.23069031 L58.9046942,7.08814645 L57.7182181,7.08814645 C56.9034093,7.08814645 56.4888574,7.40174294 56.4888574,8.01468154 Z M62.5498918,10.1100763 L62.5498918,0.0179710145 L64.3224584,0.0179710145 L64.3224584,10.1100763 L62.5498918,10.1100763 Z M70.1833643,8.54209382 L70.5979162,9.96753242 C70.226249,10.138585 69.8402869,10.2241114 69.425735,10.2241114 C67.7675275,10.2241114 66.7811799,9.32608505 66.7811799,7.57279558 L66.7811799,4.43683066 L65.6661783,4.43683066 L65.6661783,2.92586575 L66.7811799,2.92586575 L66.7811799,1.12981312 L68.5537466,0.0179710145 L68.5537466,2.92586575 L70.4549673,2.92586575 L70.4549673,4.43683066 L68.5537466,4.43683066 L68.5537466,7.5442868 C68.5537466,8.39954996 68.8682342,8.71314645 69.4972095,8.71314645 C69.7402226,8.71314645 69.9689409,8.65612891 70.1833643,8.54209382 Z M72.1560594,10.1100763 L72.1560594,0.0179710145 L73.9286261,0.0179710145 L73.9286261,4.08047101 C74.4575371,3.23946224 75.2294613,2.81183066 76.2158089,2.81183066 C77.6024134,2.81183066 78.460107,3.55305873 78.460107,4.97849733 L78.460107,10.1100763 L76.6875403,10.1100763 L76.6875403,5.60569031 C76.6875403,4.75042715 76.330168,4.32279558 75.6154234,4.32279558 C74.7005503,4.32279558 73.9286261,5.26358505 73.9286261,7.07389207 L73.9286261,10.1100763 L72.1560594,10.1100763 Z M82.1481892,9.65393593 L79.5322239,2.92586575 L81.3190855,2.92586575 L82.9915879,7.43025172 L84.564026,2.92586575 L86.3365927,2.92586575 L82.6199207,13.017971 L80.9045336,13.017971 L82.1481892,9.65393593 Z M87.8518513,9.85349733 C87.3944147,9.39735698 87.3944147,8.59911137 87.8518513,8.14297101 C88.3092878,7.68683066 89.1098018,7.68683066 89.5672384,8.14297101 C90.0246749,8.59911137 90.0246749,9.39735698 89.5672384,9.85349733 C89.1098018,10.3096377 88.3092878,10.3096377 87.8518513,9.85349733 Z" id="TasteHealthy."></path>
                              </g>
                          </g>
                      </g>
                  </g>
              </g>
          </g>
      </svg>