        <svg width="112px" height="112px" viewBox="0 0 112 112" version="1.1" xmlns="http://www.w3.org/2000/svg" xmlns:xlink="http://www.w3.org/1999/xlink">
          <g id="Page-1" stroke="none" stroke-width="1" fill="none" fill-rule="evenodd">
              <g id="panier-copy" transform="translate(-127.000000, -155.000000)">
                  <g id="Group-2" transform="translate(65.000000, 155.000000)">
                      <g id="Group-23" transform="translate(51.000000, 0.000000)">
                          <g id="noun_profile_2200069" transform="translate(11.000000, 0.000000)">
                              <g id="Group">
                                  <path d="M56.1432225,27.7851662 C65.5959079,27.7851662 73.3299233,35.5191816 73.3299233,44.971867 C73.3299233,54.7109974 65.5959079,62.4450128 56.1432225,62.4450128 C46.4040921,62.4450128 38.6700767,54.7109974 38.6700767,44.971867 C38.6700767,35.5191816 46.4040921,27.7851662 56.1432225,27.7851662 Z" id="Path" fill="#E9E9E9"></path>
                                  <path d="M56.1432225,0 C87.0792839,0 112,25.2071611 112,56.1432225 C112,87.0792839 87.0792839,112 56.1432225,112 C25.2071611,112 0,87.0792839 0,56.1432225 C0,25.2071611 25.2071611,0 56.1432225,0 Z M56.1432225,7.16112532 C29.2173913,7.16112532 7.16112532,29.2173913 7.16112532,56.1432225 C7.16112532,83.0690537 29.2173913,104.838875 56.1432225,104.838875 C83.0690537,104.838875 104.838875,83.0690537 104.838875,56.1432225 C104.838875,29.2173913 83.0690537,7.16112532 56.1432225,7.16112532 Z" id="Shape" fill="#EAEAEA" fill-rule="nonzero"></path>
                                  <path d="M42.9667519,66.455243 L69.0332481,66.455243 C80.7774936,66.455243 87.3657289,75.9079284 87.3657289,86.7928389 C70.1790281,104.265985 41.8209719,104.265985 24.9207161,86.7928389 C24.9207161,75.9079284 31.2225064,66.455243 42.9667519,66.455243 Z" id="Path" fill="#E9E9E9"></path>
                              </g>
                          </g>
                      </g>
                  </g>
              </g>
          </g>
        </svg>